<svg width="41" height="41" viewBox="0 0 41 41" fill="none" xmlns="http://www.w3.org/2000/svg">
<path d="M28.337 10.8127C28.5821 10.6878 28.8181 10.5458 29.0433 10.3877C30.8683 9.10648 31.4308 6.75023 30.2933 5.13773C29.1558 3.52523 26.7558 3.26273 24.9308 4.55648C23.1058 5.85023 22.1683 8.13773 21.1495 10.8065L28.337 10.8127ZM6.18701 19.1252H35.3183V33.9377C35.3183 34.6008 35.0549 35.2367 34.586 35.7055C34.1172 36.1743 33.4813 36.4377 32.8183 36.4377H8.68701C8.02397 36.4377 7.38809 36.1743 6.91924 35.7055C6.4504 35.2367 6.18701 34.6008 6.18701 33.9377V19.1252Z" stroke="#0EA03B" stroke-width="2.5" stroke-linecap="round" stroke-linejoin="round"/>
<path d="M24.4065 19.125H17.094V36.4375H24.4065V19.125Z" stroke="#0EA03B" stroke-width="2.5" stroke-linecap="round" stroke-linejoin="round"/>
<path d="M13.163 10.8127C12.9191 10.6891 12.6851 10.5471 12.463 10.3877C10.638 9.10648 10.0692 6.75023 11.213 5.13773C12.3567 3.52523 14.7505 3.26273 16.5817 4.55648C18.413 5.85023 19.338 8.13773 20.363 10.8065L13.163 10.8127Z" stroke="#0EA03B" stroke-width="2.5" stroke-linecap="round" stroke-linejoin="round"/>
<path d="M34.8125 10.812H6.6875C5.65197 10.812 4.8125 11.6515 4.8125 12.687V17.2495C4.8125 18.285 5.65197 19.1245 6.6875 19.1245H34.8125C35.848 19.1245 36.6875 18.285 36.6875 17.2495V12.687C36.6875 11.6515 35.848 10.812 34.8125 10.812Z" stroke="#0EA03B" stroke-width="2.5" stroke-linecap="round" stroke-linejoin="round"/>
<path d="M25.0749 10.812H16.4312V19.1245H25.0749V10.812Z" stroke="#0EA03B" stroke-width="2.5" stroke-linecap="round" stroke-linejoin="round"/>
</svg>
