<svg width="44" height="45" viewBox="0 0 44 45" fill="none" xmlns="http://www.w3.org/2000/svg">
<path d="M43.9873 23.9679L42.7624 11.6186C42.6953 10.9426 42.3684 10.3331 41.8419 9.90233C41.3193 9.47488 40.664 9.27645 39.9971 9.34383L35.7308 9.77394C34.6438 9.8836 33.7853 10.6752 33.533 11.6841L32.4386 11.7944L29.2128 9.86718C28.1195 9.21406 27.7501 9.12589 26.5777 9.23786L21.9997 9.67511L17.4222 9.23786C16.2496 9.1258 15.8803 9.21415 14.7872 9.86718L11.5614 11.7944L10.4669 11.6841C10.2145 10.6752 9.3561 9.8836 8.269 9.77403L4.00282 9.34391C3.33534 9.27654 2.6805 9.47505 2.15801 9.90242C1.63147 10.3332 1.30456 10.9427 1.23753 11.6187L0.0125847 23.9679C-0.125516 25.3606 0.888886 26.6071 2.27385 26.7467L6.54011 27.1769C6.62536 27.1855 6.71027 27.1897 6.79492 27.1897C7.3725 27.1897 7.92929 26.9911 8.38501 26.6183C8.68055 26.3765 8.91318 26.0784 9.07225 25.7437L9.33316 25.77C8.74071 26.7464 8.86248 28.0423 9.69985 28.8865C10.1759 29.3663 10.811 29.6307 11.4883 29.6307C11.6651 29.6307 11.8388 29.6127 12.0078 29.5776C12.1213 29.9773 12.334 30.3542 12.6456 30.6684C13.1216 31.1484 13.7568 31.4127 14.434 31.4127C14.6107 31.4127 14.7846 31.3947 14.9534 31.3596C15.0671 31.7592 15.2797 32.1362 15.5914 32.4504C16.0674 32.9302 16.7025 33.1946 17.3798 33.1946C17.5566 33.1946 17.7303 33.1766 17.8993 33.1415C18.0128 33.5412 18.2255 33.9182 18.5371 34.2323C19.0131 34.7122 19.6483 34.9766 20.3256 34.9766C21.0028 34.9766 21.638 34.7122 22.114 34.2323L23.078 33.2605C23.5476 33.5442 24.0663 33.6921 24.5908 33.6921C24.9614 33.6921 25.3351 33.6186 25.6958 33.4681C26.3656 33.1886 26.8825 32.6885 27.1771 32.0746C27.9148 32.3059 28.668 32.2175 29.3233 31.7979C29.8815 31.4404 30.2865 30.8866 30.4771 30.2816C31.5431 30.3744 32.5499 29.8504 33.1143 29.1177C33.8789 28.125 33.8517 26.8754 33.0775 25.9302L34.9278 25.7436C35.0869 26.0782 35.3195 26.3764 35.6151 26.6182C36.071 26.9911 36.6276 27.1896 37.2052 27.1896C37.2897 27.1896 37.3748 27.1853 37.46 27.1768L41.7262 26.7467C43.1112 26.6071 44.1254 25.3605 43.9873 23.9679ZM26.741 10.9488C27.5436 10.8721 27.5437 10.8721 28.3314 11.3427L31.8011 13.4157C31.9596 13.5104 32.1446 13.5515 32.3281 13.533L33.5546 13.4093L34.6099 24.0483L31.5487 24.357L26.9892 19.718C28.568 19.376 29.8579 18.4447 30.6547 17.0532C30.8906 16.6414 30.7478 16.1162 30.336 15.8804C29.924 15.6444 29.3991 15.7873 29.1632 16.199C28.5549 17.2614 27.5222 17.9381 26.2554 18.1045C24.7987 18.2958 23.235 17.7912 22.2706 16.819C22.1007 16.6477 21.8667 16.5564 21.6255 16.5655C21.3845 16.5753 21.1586 16.686 21.0032 16.8705L19.9228 18.153C19.1101 19.1176 18.7023 19.6017 16.088 19.6017C15.9552 19.6017 15.8575 19.5646 15.82 19.5C15.7792 19.4296 15.7969 19.3106 15.8663 19.1896C16.5463 18.0022 17.1634 16.9799 17.7602 15.9912C18.4214 14.8957 19.1052 13.763 19.8739 12.4066C20.2404 11.76 20.4805 11.5467 21.268 11.4714L22.0831 11.3935C22.0884 11.393 22.0936 11.3926 22.0988 11.3921L26.741 10.9488ZM11.4882 27.912C11.2727 27.912 11.0709 27.8282 10.9201 27.6762C10.6067 27.3603 10.6067 26.8265 10.9201 26.5105L12.0984 25.3226C12.2492 25.1704 12.451 25.0867 12.6665 25.0867C12.882 25.0867 13.0837 25.1704 13.2346 25.3226C13.5479 25.6385 13.5479 26.1722 13.2347 26.4881L13.2346 26.4882L12.6455 27.0822L12.0564 27.6762C11.9055 27.8282 11.7036 27.912 11.4882 27.912ZM14.434 29.694C14.2184 29.694 14.0167 29.6102 13.8658 29.4582C13.5525 29.1423 13.5525 28.6084 13.8658 28.2925L14.4549 27.6985L14.4583 27.6952L15.044 27.1045C15.1949 26.9524 15.3967 26.8686 15.6122 26.8686C15.8277 26.8686 16.0295 26.9524 16.1803 27.1045C16.4936 27.4204 16.4936 27.9542 16.1803 28.2701L15.5912 28.8641L15.002 29.4581C14.8512 29.6102 14.6495 29.694 14.434 29.694ZM17.3797 31.476C17.1642 31.476 16.9624 31.3922 16.8116 31.2402C16.4983 30.9243 16.4983 30.3905 16.8115 30.0746L16.8116 30.0745L17.4007 29.4805L17.9898 28.8866C18.1407 28.7345 18.3425 28.6507 18.558 28.6507C18.7735 28.6507 18.9752 28.7345 19.126 28.8865C19.4394 29.2024 19.4394 29.7363 19.126 30.0521L18.5369 30.6461L17.9478 31.24C17.797 31.3922 17.5952 31.476 17.3797 31.476ZM22.072 31.8341L20.8936 33.0222C20.7428 33.1743 20.541 33.258 20.3255 33.258C20.1099 33.258 19.9082 33.1742 19.7573 33.0222C19.444 32.7063 19.444 32.1724 19.7573 31.8565L20.3464 31.2625L20.9355 30.6686C21.0864 30.5165 21.2882 30.4327 21.5037 30.4327C21.7193 30.4327 21.9211 30.5165 22.0719 30.6685C22.3853 30.9844 22.3853 31.5182 22.072 31.8341ZM31.7526 28.0691C31.4786 28.425 30.8198 28.8082 30.1282 28.4055C29.8288 28.2313 29.4541 28.2537 29.1778 28.4625C28.9014 28.6714 28.7774 29.0257 28.8633 29.3613C28.9456 29.6827 28.7318 30.1359 28.3963 30.3506C28.0336 30.5831 27.6089 30.5049 27.134 30.1194C26.8727 29.907 26.5113 29.867 26.2095 30.017C25.9079 30.167 25.7217 30.4794 25.7333 30.816C25.7527 31.3793 25.3685 31.7424 25.0336 31.8822C24.8504 31.9587 24.4317 32.072 23.9693 31.7933C24.1449 30.9776 23.9197 30.091 23.2921 29.4583C22.8161 28.9784 22.1809 28.7141 21.5037 28.7141C21.327 28.7141 21.1531 28.732 20.9843 28.7672C20.8706 28.3675 20.658 27.9906 20.3463 27.6764C19.8703 27.1965 19.2352 26.9322 18.5579 26.9322C18.3812 26.9322 18.2074 26.9501 18.0385 26.9853C17.925 26.5856 17.7123 26.2086 17.4006 25.8944C16.9246 25.4145 16.2894 25.1502 15.6122 25.1502C15.4355 25.1502 15.2616 25.1681 15.0928 25.2033C14.9792 24.8036 14.7666 24.4267 14.4549 24.1125C13.9788 23.6325 13.3437 23.3682 12.6664 23.3682C11.9891 23.3682 11.3541 23.6325 10.878 24.1125L10.8003 24.1908L9.38996 24.0486L9.53605 22.5763C9.58289 22.1039 9.23802 21.683 8.76571 21.6363C8.29306 21.5892 7.87248 21.9343 7.82573 22.4066L7.59499 24.7329C7.57334 24.9514 7.46729 25.1487 7.29653 25.2884C7.12973 25.4249 6.9221 25.4884 6.71242 25.4672L2.44615 25.037C2.00263 24.9923 1.67813 24.589 1.72291 24.138L2.94785 11.7887C2.96951 11.5701 3.07556 11.3728 3.24631 11.2331C3.41303 11.0967 3.62074 11.033 3.83034 11.0543L8.09661 11.4844C8.54022 11.5292 8.86471 11.9325 8.81994 12.3834L8.58911 14.7097C8.54228 15.1821 8.88714 15.6029 9.35945 15.6497C9.83168 15.6963 10.2527 15.3517 10.2994 14.8794L10.4453 13.4096L11.6719 13.5333C11.7006 13.5362 11.7293 13.5376 11.758 13.5376C11.9127 13.5376 12.0651 13.4958 12.1988 13.4159L15.6685 11.3428C16.4561 10.8723 16.4561 10.8723 17.2588 10.949L18.6785 11.0846C18.5727 11.2336 18.4735 11.3918 18.3785 11.5595C17.6213 12.8953 16.9438 14.0177 16.2886 15.1032C15.6867 16.1003 15.0645 17.1312 14.3747 18.3358C13.9962 18.9968 13.9806 19.7544 14.333 20.3623C14.6809 20.9625 15.337 21.3208 16.0879 21.3208C19.1649 21.3208 20.0574 20.6611 21.2371 19.2607L21.762 18.6376C22.5961 19.2413 23.6005 19.639 24.6522 19.7925L31.6582 26.9206C32.1154 27.3776 31.9618 27.7974 31.7526 28.0691ZM41.5537 25.0367L37.2875 25.4668C37.0771 25.4881 36.8702 25.4245 36.7034 25.2881C36.5326 25.1484 36.4266 24.951 36.4049 24.7325L35.18 12.3832C35.1353 11.9322 35.4598 11.5289 35.9034 11.4842L40.1696 11.0541C40.3795 11.0326 40.5869 11.0963 40.7536 11.2328C40.9243 11.3725 41.0305 11.5699 41.0521 11.7884L42.2771 24.1377C42.3217 24.5886 41.9973 24.992 41.5537 25.0367Z" fill="#0EA03B"/>
<path d="M4.63477 21.3831C4.16013 21.3831 3.77539 21.7678 3.77539 22.2424C3.77539 22.7171 4.16013 23.1018 4.63477 23.1018H4.63537C5.11 23.1018 5.49448 22.7171 5.49448 22.2424C5.49448 21.7678 5.1094 21.3831 4.63477 21.3831Z" fill="#0EA03B"/>
<path d="M38.4509 12.8752C37.9764 12.8752 37.5916 13.26 37.5916 13.7346C37.5916 14.2093 37.9764 14.594 38.4509 14.594H38.4516C38.9262 14.594 39.3106 14.2093 39.3106 13.7346C39.3106 13.26 38.9256 12.8752 38.4509 12.8752Z" fill="#0EA03B"/>
<path d="M9.06264 17.7832H9.06203C8.5874 17.7832 8.203 18.1679 8.203 18.6426C8.203 19.1172 8.588 19.502 9.06264 19.502C9.53727 19.502 9.92201 19.1172 9.92201 18.6426C9.92201 18.1679 9.53727 17.7832 9.06264 17.7832Z" fill="#0EA03B"/>
</svg>
