<svg width="41" height="41" viewBox="0 0 41 41" fill="none" xmlns="http://www.w3.org/2000/svg">
<g clip-path="url(#clip0_8_276)">
<g clip-path="url(#clip1_8_276)">
<path d="M27.9941 12.5928V1.83691C27.9941 0.870416 27.2106 0.0869141 26.2441 0.0869141H2.25C1.2835 0.0869141 0.5 0.870416 0.5 1.83691V25.8311C0.5 26.7976 1.2835 27.5811 2.25 27.5811H13.0059V38.3369C13.0059 39.3034 13.7894 40.0869 14.7559 40.0869H38.75C39.7165 40.0869 40.5 39.3034 40.5 38.3369V14.3428C40.5 13.3763 39.7165 12.5928 38.75 12.5928H27.9941ZM4.59022 25.2408C3.62373 25.2407 2.84023 24.4572 2.84023 23.4908V4.17715C2.84023 3.21065 3.62374 2.42715 4.59023 2.42715H23.9039C24.8704 2.42715 25.6539 3.21065 25.6539 4.17715V12.5929H14.7559C13.7894 12.5929 13.0059 13.3764 13.0059 14.3429V25.2408L4.59022 25.2408ZM20.0266 14.9331L25.6539 20.8057V23.8214L16.9578 14.9331H20.0266ZM15.3461 22.7859L17.6959 25.2408H15.3461V22.7859ZM20.9354 25.2407L15.3461 19.4014V16.6321L23.7685 25.2407H20.9354ZM25.6539 17.4232L23.2678 14.933H25.6539V17.4232ZM38.1598 35.9967C38.1598 36.9632 37.3763 37.7467 36.4098 37.7467H17.0961C16.1296 37.7467 15.3461 36.9632 15.3461 35.9967V27.5811H26.2441C27.2106 27.5811 27.9941 26.7976 27.9941 25.8311V14.9331H36.4098C37.3763 14.9331 38.1598 15.7166 38.1598 16.6831V35.9967Z" fill="#0EA03B"/>
</g>
</g>
<defs>
<clipPath id="clip0_8_276">
<rect width="40" height="40" fill="white" transform="translate(0.5 0.0869141)"/>
</clipPath>
<clipPath id="clip1_8_276">
<rect width="40" height="40" fill="white" transform="translate(0.5 0.0869141)"/>
</clipPath>
</defs>
</svg>
