<svg width="44" height="45" viewBox="0 0 44 45" fill="none" xmlns="http://www.w3.org/2000/svg">
<g clip-path="url(#clip0_11_1107)">
<path d="M37.619 28.4995C36.6762 27.7312 35.3086 27.7592 34.5053 28.5623C34.499 28.5688 34.4926 28.5753 34.4863 28.582L29.8268 33.5472L27.7719 33.6169C28.5067 32.7541 28.5795 31.773 28.3541 31.0721C28.2728 30.8191 28.1504 30.5908 27.9971 30.3887C28.4561 30.1378 28.8833 29.8223 29.2617 29.4439C30.6685 28.037 31.223 25.967 30.709 24.0421C30.5658 23.5048 30.1428 23.0883 29.604 22.953C27.6854 22.4492 25.6243 23.0055 24.2239 24.406C24.1014 24.5284 23.9857 24.6563 23.8763 24.7883V22.1296C28.7976 20.9626 32.47 16.5316 32.47 11.2585C32.47 5.09828 27.4584 0.0866699 21.2981 0.0866699C19.785 0.0866699 18.3169 0.384357 16.9347 0.971395C16.4979 1.15693 16.2941 1.66147 16.4796 2.09829C16.6652 2.53511 17.1697 2.73895 17.6065 2.55333C18.7749 2.05713 20.017 1.80542 21.2981 1.80542C26.5105 1.80542 30.7512 6.04608 30.7512 11.2585C30.7512 16.471 26.5105 20.7116 21.2981 20.7116C16.0856 20.7116 11.8449 16.471 11.8449 11.2585C11.8449 9.9778 12.0965 8.73592 12.5927 7.56743C12.7782 7.13061 12.5744 6.62607 12.1376 6.44053C11.7008 6.25525 11.1961 6.45884 11.0107 6.89574C10.4238 8.27787 10.1262 9.74577 10.1262 11.2586C10.1262 16.5317 13.7986 20.9627 18.7199 22.1297V25.6479C18.6105 25.5159 18.4949 25.388 18.3724 25.2655C16.9721 23.8652 14.9111 23.3085 12.9926 23.8123C12.4535 23.9478 12.0303 24.3644 11.8872 24.9012C11.3731 26.8265 11.9276 28.8966 13.3345 30.3034C13.606 30.5749 13.9025 30.8141 14.2178 31.0205C13.1656 31.214 12.1375 31.5477 11.1545 32.0229C8.85235 33.1355 6.94824 34.9343 5.64783 37.2247C5.41348 37.6375 5.5582 38.162 5.97087 38.3963C6.38354 38.6307 6.9081 38.486 7.14246 38.0733C9.4748 33.9651 13.8842 31.8686 18.3752 32.7325C18.3985 32.737 18.4219 32.7405 18.4454 32.743C19.0959 32.8131 19.5959 32.8207 20.1714 32.7697C20.6244 32.7294 21.6066 32.4208 23.1718 31.9208C24.1002 31.6241 25.5033 31.1757 25.8012 31.1466C26.2711 31.1046 26.6135 31.2737 26.7179 31.5983C26.8365 31.9671 26.6218 32.5369 25.8746 32.9783C24.1043 34.0242 22.441 34.8948 20.7895 35.6401C20.3569 35.8352 20.1645 36.3442 20.3596 36.7769C20.5549 37.2095 21.0637 37.4019 21.4965 37.2068C22.6651 36.6794 23.8378 36.0923 25.046 35.4292L30.2398 35.2532C30.4671 35.2454 30.6819 35.1481 30.8374 34.9824L35.7274 29.7715C35.9057 29.6032 36.2865 29.631 36.5334 29.8322C36.9136 30.142 36.708 30.6407 36.4686 31.0047L33.3761 35.7039C32.927 36.3862 32.3589 37.1258 31.5501 37.4367C27.8292 38.8671 24.5088 39.7639 22.6682 39.8359L15.1162 40.1309C14.8381 40.1417 14.5825 40.2866 14.4303 40.5195L12.9681 42.7574C12.7085 43.1548 12.8202 43.6872 13.2175 43.9469C13.3626 44.0417 13.5255 44.0869 13.6868 44.0869C13.9673 44.0869 14.2422 43.9498 14.407 43.6975L15.6264 41.831L22.7353 41.5533C24.7839 41.4733 28.2216 40.5576 32.1667 39.0411C33.4371 38.5527 34.2477 37.5061 34.8118 36.6488L37.9042 31.9496C38.9215 30.4034 38.3863 29.1247 37.619 28.4995ZM29.0753 24.5923C29.3837 25.896 28.9947 27.28 28.0463 28.2285C27.3682 28.9066 26.4661 29.2971 25.5305 29.3525L27.0541 27.8289C27.3897 27.4933 27.3897 26.9491 27.0541 26.6135C26.7185 26.278 26.1745 26.278 25.8387 26.6135L24.3149 28.1373C24.3701 27.2017 24.7605 26.2999 25.4391 25.6213C26.3869 24.6736 27.7718 24.2839 29.0753 24.5923ZM21.2981 22.4304C21.5872 22.4304 21.8738 22.4193 22.1575 22.3976V30.4401C21.5539 30.6319 20.8789 30.843 20.4387 30.9624V22.3976C20.7223 22.4193 21.0089 22.4304 21.2981 22.4304ZM13.5208 25.4517C14.8241 25.1435 16.2093 25.5329 17.157 26.4808C17.8355 27.1592 18.2258 28.0609 18.2811 28.9966L16.7573 27.4728C16.4217 27.1373 15.8776 27.1373 15.5419 27.4728C15.2063 27.8084 15.2063 28.3526 15.5419 28.6882L17.0656 30.212C16.13 30.1566 15.2278 29.7661 14.5497 29.0879C13.6014 28.1396 13.2124 26.7556 13.5208 25.4517Z" fill="#0EA03B"/>
<path d="M20.6832 13.4794C20.3476 13.1439 19.8034 13.1439 19.4677 13.4794C19.1322 13.815 19.1322 14.3592 19.4677 14.6948C19.7478 14.9749 20.083 15.1671 20.4386 15.2716V15.5554C20.4386 16.03 20.8233 16.4148 21.2979 16.4148C21.7726 16.4148 22.1573 16.03 22.1573 15.5554V15.1014C22.3558 14.9969 22.542 14.8614 22.7087 14.6947C23.6021 13.8013 23.6021 12.3474 22.7087 11.4538L21.1026 9.8478C20.8792 9.62436 20.8792 9.26101 21.1026 9.03758C21.326 8.81422 21.6896 8.81422 21.9129 9.03758C22.2486 9.37325 22.7927 9.37308 23.1282 9.03758C23.4638 8.7019 23.4638 8.15783 23.1282 7.82216C22.8482 7.54209 22.513 7.34994 22.1573 7.24544V6.96167C22.1573 6.48712 21.7726 6.10229 21.2979 6.10229C20.8233 6.10229 20.4386 6.48712 20.4386 6.96167V7.41551C20.2401 7.52001 20.0539 7.65553 19.8872 7.82216C19.4543 8.25503 19.2159 8.83047 19.2159 9.4426C19.2159 10.0547 19.4543 10.6302 19.8872 11.063L21.4932 12.669C21.7166 12.8925 21.7166 13.256 21.4933 13.4793C21.2699 13.7028 20.9065 13.7028 20.6832 13.4794Z" fill="#0EA03B"/>
<path d="M21.2981 18.993C25.5628 18.993 29.0325 15.5234 29.0325 11.2586C29.0325 6.99381 25.5628 3.52417 21.2981 3.52417C17.0334 3.52417 13.5637 6.99381 13.5637 11.2586C13.5637 15.5234 17.0334 18.993 21.2981 18.993ZM21.2981 5.24292C24.6151 5.24292 27.3137 7.94153 27.3137 11.2586C27.3137 14.5756 24.6151 17.2743 21.2981 17.2743C17.9811 17.2743 15.2825 14.5756 15.2825 11.2586C15.2825 7.94153 17.9811 5.24292 21.2981 5.24292Z" fill="#0EA03B"/>
<path d="M14.0058 4.82601C14.2258 4.82601 14.4459 4.74205 14.6137 4.57422C14.9493 4.23863 14.9493 3.69447 14.6137 3.3588C14.2781 3.0233 13.7341 3.0233 13.3984 3.3588L13.398 3.35923C13.0624 3.69482 13.0626 4.23872 13.3981 4.57439C13.566 4.74222 13.7858 4.82601 14.0058 4.82601Z" fill="#0EA03B"/>
</g>
<defs>
<clipPath id="clip0_11_1107">
<rect width="44" height="44" fill="white" transform="translate(0 0.0866699)"/>
</clipPath>
</defs>
</svg>
