<svg width="44" height="45" viewBox="0 0 44 45" fill="none" xmlns="http://www.w3.org/2000/svg">
<g clip-path="url(#clip0_11_1082)">
<path d="M21.9999 7.47729C13.9444 7.47729 7.39062 14.031 7.39062 22.0866C7.39062 30.1422 13.9444 36.6959 21.9999 36.6959C30.0555 36.6959 36.6093 30.1422 36.6093 22.0866C36.6093 14.031 30.0556 7.47729 21.9999 7.47729ZM32.7765 29.1517C31.3329 28.5057 29.5561 28.0086 27.5748 27.6856C27.821 26.1944 27.9674 24.5955 28.0053 22.9461H34.8612C34.7104 25.2263 33.964 27.3462 32.7765 29.1517ZM21.9999 34.8978C21.0384 34.8978 19.9771 33.606 19.1609 31.4422C18.8963 30.7407 18.6665 29.9714 18.4709 29.152C19.6077 29.0345 20.7941 28.9724 21.9999 28.9724C23.2056 28.9724 24.3919 29.0345 25.5289 29.1523C25.3333 29.9716 25.1035 30.7407 24.839 31.4422C24.0228 33.6059 22.9616 34.8978 21.9999 34.8978ZM21.9999 27.2536C20.6805 27.2536 19.3789 27.3259 18.1304 27.4623C17.894 26.0485 17.7523 24.5249 17.7146 22.946H18.1331C18.6077 22.946 18.9925 22.5612 18.9925 22.0866C18.9925 21.612 18.6077 21.2272 18.1331 21.2272H17.7146C17.7522 19.6505 17.8935 18.1289 18.1294 16.7167C19.3695 16.8499 20.6684 16.9196 22 16.9196C23.3195 16.9196 24.6211 16.8474 25.8696 16.7109C26.106 18.1247 26.2476 19.6483 26.2854 21.2272H25.8675C25.393 21.2272 25.0082 21.612 25.0082 22.0866C25.0082 22.5612 25.393 22.946 25.8675 22.946H26.2854C26.2477 24.5228 26.1064 26.0444 25.8706 27.4566C24.6305 27.3234 23.3315 27.2536 21.9999 27.2536ZM9.13876 22.946H15.9947C16.0326 24.5985 16.1795 26.2003 16.4265 27.6938C14.4412 28.0193 12.6517 28.5161 11.2237 29.1518C10.0359 27.3464 9.28958 25.2264 9.13876 22.946ZM11.2235 15.0216C12.6671 15.6676 14.4438 16.1647 16.4251 16.4877C16.1789 17.9789 16.0325 19.5778 15.9946 21.2273H9.13867C9.28958 18.9469 10.0359 16.827 11.2235 15.0216ZM21.9999 9.27553C22.9615 9.27553 24.0228 10.5673 24.839 12.7311C25.1036 13.4327 25.3334 14.2019 25.529 15.0213C24.3922 15.1389 23.2058 15.2009 21.9999 15.2009C20.7943 15.2009 19.608 15.1388 18.471 15.021C18.6665 14.2017 18.8963 13.4326 19.1609 12.7311C19.9771 10.5673 21.0384 9.27553 21.9999 9.27553ZM28.0053 21.2272C27.9674 19.5748 27.8205 17.973 27.5735 16.4795C29.5588 16.1539 31.3483 15.6572 32.7764 15.0215C33.964 16.8269 34.7104 18.9468 34.8612 21.2272H28.0053ZM31.7042 13.6113C30.4564 14.1214 28.9303 14.5239 27.2419 14.796C27.0211 13.8384 26.7554 12.9416 26.4472 12.1246C26.069 11.1219 25.6365 10.2729 25.1611 9.58869C27.737 10.2406 30.0065 11.6697 31.7042 13.6113ZM18.8388 9.58869C18.3635 10.2729 17.931 11.1219 17.5528 12.1246C17.2447 12.9414 16.979 13.8382 16.7581 14.7956C15.0707 14.5234 13.5447 14.1208 12.2963 13.6107C13.994 11.6695 16.2631 10.2405 18.8388 9.58869ZM12.2957 30.562C13.5436 30.0519 15.0697 29.6493 16.758 29.3772C16.979 30.3348 17.2447 31.2316 17.5529 32.0487C17.9311 33.0514 18.3636 33.9003 18.8388 34.5845C16.2629 33.9327 13.9935 32.5035 12.2957 30.562ZM25.1611 34.5845C25.6364 33.9003 26.069 33.0514 26.4471 32.0487C26.7552 31.2318 27.0209 30.3351 27.2418 29.3777C28.9292 29.6499 30.4552 30.0526 31.7036 30.5626C30.006 32.5037 27.7369 33.9328 25.1611 34.5845Z" fill="#0EA03B"/>
<path d="M22 5.67261C23.5401 5.67261 24.7931 4.41964 24.7931 2.87964C24.7931 1.33955 23.5401 0.0866699 22 0.0866699C20.4599 0.0866699 19.207 1.33964 19.207 2.87964C19.207 4.41972 20.4599 5.67261 22 5.67261ZM22 1.80542C22.5924 1.80542 23.0743 2.28736 23.0743 2.87964C23.0743 3.47192 22.5924 3.95386 22 3.95386C21.4076 3.95386 20.9258 3.47201 20.9258 2.87964C20.9258 2.28727 21.4077 1.80542 22 1.80542Z" fill="#0EA03B"/>
<path d="M8.41853 11.297C9.13362 11.297 9.84905 11.0246 10.3935 10.4802C10.921 9.95275 11.2116 9.25133 11.2116 8.5053C11.2116 7.75919 10.921 7.05786 10.3935 6.53037C9.30446 5.44137 7.53252 5.44137 6.44352 6.53037C5.3546 7.61929 5.3546 9.39123 6.44352 10.4802C6.98819 11.0248 7.70327 11.297 8.41853 11.297ZM7.65893 7.7457C8.0777 7.32684 8.75936 7.32684 9.17813 7.7457C9.38103 7.9486 9.49275 8.21836 9.49275 8.5053C9.49275 8.79216 9.38103 9.06201 9.17813 9.26482C8.75919 9.68376 8.0777 9.68368 7.65893 9.26482C7.24007 8.84605 7.24007 8.16456 7.65893 7.7457Z" fill="#0EA03B"/>
<path d="M5.58594 22.0867C5.58594 20.5467 4.33305 19.2937 2.79297 19.2937C1.25288 19.2937 0 20.5467 0 22.0867C0 23.6267 1.25288 24.8796 2.79297 24.8796C4.33305 24.8796 5.58594 23.6268 5.58594 22.0867ZM2.79297 23.1609C2.2006 23.1609 1.71875 22.679 1.71875 22.0867C1.71875 21.4943 2.2006 21.0125 2.79297 21.0125C3.38534 21.0125 3.86719 21.4943 3.86719 22.0867C3.86719 22.679 3.38534 23.1609 2.79297 23.1609Z" fill="#0EA03B"/>
<path d="M6.44364 33.6933C5.35472 34.7823 5.35472 36.5541 6.44364 37.6431C6.98814 38.1875 7.7034 38.4598 8.41857 38.4598C9.13374 38.4598 9.84908 38.1875 10.3935 37.6431C11.4825 36.5541 11.4825 34.7822 10.3935 33.6932C9.30458 32.6043 7.53264 32.6042 6.44364 33.6933ZM9.17817 36.4277C8.7594 36.8466 8.07791 36.8466 7.65897 36.4277C7.24019 36.0088 7.24019 35.3273 7.65897 34.9085C8.07774 34.4896 8.7594 34.4897 9.17817 34.9085C9.59703 35.3274 9.59703 36.0089 9.17817 36.4277Z" fill="#0EA03B"/>
<path d="M22 38.5007C20.4599 38.5007 19.207 39.7537 19.207 41.2937C19.207 42.8337 20.4599 44.0867 22 44.0867C23.5401 44.0867 24.793 42.8337 24.793 41.2937C24.793 39.7537 23.5401 38.5007 22 38.5007ZM22 42.3679C21.4076 42.3679 20.9258 41.8861 20.9258 41.2937C20.9258 40.7013 21.4076 40.2195 22 40.2195C22.5924 40.2195 23.0742 40.7013 23.0742 41.2937C23.0742 41.8861 22.5924 42.3679 22 42.3679Z" fill="#0EA03B"/>
<path d="M35.5814 32.8752C34.8354 32.8752 34.1339 33.1657 33.6065 33.6933C32.5175 34.7823 32.5175 36.5542 33.6065 37.6431C34.134 38.1707 34.8355 38.4612 35.5814 38.4612C36.3275 38.4612 37.0289 38.1707 37.5563 37.6431C38.6453 36.5541 38.6453 34.7822 37.5563 33.6933C37.0289 33.1657 36.3275 32.8752 35.5814 32.8752ZM36.341 36.4277C36.341 36.4278 36.341 36.4278 36.341 36.4277C36.1382 36.6306 35.8684 36.7423 35.5814 36.7423C35.2944 36.7423 35.0247 36.6306 34.8219 36.4277C34.403 36.0089 34.403 35.3274 34.8219 34.9085C35.0247 34.7057 35.2944 34.5939 35.5814 34.5939C35.8684 34.5939 36.1382 34.7056 36.341 34.9085C36.7599 35.3274 36.7599 36.009 36.341 36.4277Z" fill="#0EA03B"/>
<path d="M41.207 19.2937C39.6669 19.2937 38.4141 20.5467 38.4141 22.0867C38.4141 23.6267 39.6669 24.8796 41.207 24.8796C42.7471 24.8796 44 23.6267 44 22.0867C44 20.5467 42.7471 19.2937 41.207 19.2937ZM41.207 23.1609C40.6147 23.1609 40.1328 22.679 40.1328 22.0867C40.1328 21.4943 40.6147 21.0125 41.207 21.0125C41.7994 21.0125 42.2812 21.4943 42.2812 22.0867C42.2812 22.679 41.7994 23.1609 41.207 23.1609Z" fill="#0EA03B"/>
<path d="M35.5814 11.2982C36.3275 11.2982 37.029 11.0076 37.5563 10.4801C38.0839 9.95266 38.3745 9.25124 38.3745 8.50521C38.3745 7.75919 38.0839 7.05777 37.5563 6.53028C37.0289 6.00271 36.3274 5.71216 35.5814 5.71216C34.8354 5.71216 34.134 6.00271 33.6066 6.5302C33.079 7.05768 32.7885 7.7591 32.7885 8.50513C32.7885 9.25115 33.079 9.95257 33.6066 10.48C34.1341 11.0077 34.8355 11.2982 35.5814 11.2982ZM34.8219 7.74561C35.0247 7.54271 35.2946 7.43099 35.5814 7.43099C35.8684 7.43099 36.1382 7.54271 36.341 7.74561C36.5439 7.94851 36.6556 8.21827 36.6556 8.50521C36.6556 8.79207 36.5439 9.06192 36.341 9.26481C36.1382 9.46771 35.8684 9.57943 35.5814 9.57943C35.2946 9.57943 35.0247 9.46771 34.8219 9.26473C34.619 9.06183 34.5073 8.79207 34.5073 8.50521C34.5073 8.21827 34.619 7.94851 34.8219 7.74561Z" fill="#0EA03B"/>
<path d="M12.8914 7.51219C13.001 7.51219 13.1124 7.49114 13.22 7.44654L17.8565 5.52609C18.295 5.3445 18.5032 4.84177 18.3216 4.40332C18.1399 3.96478 17.6373 3.75655 17.1987 3.93822L12.5622 5.85867C12.1237 6.04025 11.9155 6.54299 12.0971 6.98144C12.2343 7.31247 12.5542 7.51219 12.8914 7.51219Z" fill="#0EA03B"/>
<path d="M4.31677 18.4081C4.42436 18.4527 4.53574 18.4738 4.64531 18.4738C4.98253 18.4738 5.30247 18.274 5.43963 17.943L7.36016 13.3065C7.54175 12.8681 7.33352 12.3653 6.89507 12.1837C6.45653 12.0022 5.95388 12.2104 5.77221 12.6488L3.85168 17.2853C3.67 17.7238 3.87823 18.2265 4.31677 18.4081Z" fill="#0EA03B"/>
<path d="M6.56637 32.0552C6.67594 32.0552 6.78731 32.0341 6.89491 31.9895C7.33345 31.8079 7.54159 31.3052 7.36 30.8667L5.43947 26.2302C5.2578 25.7916 4.75506 25.5835 4.31661 25.7651C3.87807 25.9467 3.66993 26.4495 3.85152 26.8879L5.77205 31.5244C5.9092 31.8554 6.22924 32.0552 6.56637 32.0552Z" fill="#0EA03B"/>
<path d="M17.8565 38.6473L13.22 36.7268C12.7815 36.5452 12.2788 36.7534 12.0971 37.1918C11.9155 37.6304 12.1238 38.1331 12.5622 38.3147L17.1987 40.2352C17.3063 40.2798 17.4177 40.3009 17.5272 40.3009C17.8645 40.3009 18.1844 40.1011 18.3216 39.7702C18.5032 39.3316 18.295 38.8289 17.8565 38.6473Z" fill="#0EA03B"/>
<path d="M30.7801 36.7268L26.1436 38.6473C25.7051 38.8289 25.497 39.3317 25.6785 39.7701C25.8157 40.1011 26.1356 40.3009 26.4729 40.3009C26.5824 40.3009 26.6938 40.2798 26.8014 40.2352L31.4379 38.3147C31.8764 38.1331 32.0846 37.6304 31.903 37.1919C31.7213 36.7533 31.2188 36.5451 30.7801 36.7268Z" fill="#0EA03B"/>
<path d="M39.6835 25.7653C39.2449 25.5837 38.7424 25.792 38.5606 26.2304L36.6401 30.8669C36.4585 31.3054 36.6667 31.8081 37.1052 31.9897C37.2128 32.0343 37.3241 32.0553 37.4337 32.0553C37.7709 32.0553 38.0909 31.8555 38.228 31.5246L40.1486 26.8881C40.3301 26.4497 40.1219 25.9469 39.6835 25.7653Z" fill="#0EA03B"/>
<path d="M37.1052 12.1838C36.6666 12.3654 36.4585 12.8681 36.6401 13.3066L38.5606 17.9431C38.6978 18.2741 39.0177 18.4738 39.3549 18.4738C39.4645 18.4738 39.5759 18.4528 39.6835 18.4082C40.122 18.2266 40.3302 17.7238 40.1486 17.2854L38.228 12.6489C38.0464 12.2103 37.5438 12.0022 37.1052 12.1838Z" fill="#0EA03B"/>
<path d="M26.1436 5.52604L30.7801 7.44657C30.8877 7.49118 30.9991 7.51223 31.1087 7.51223C31.4459 7.51223 31.7658 7.31243 31.903 6.98148C32.0846 6.54294 31.8764 6.04029 31.4379 5.85871L26.8014 3.93818C26.363 3.75659 25.8602 3.96482 25.6785 4.40327C25.497 4.84172 25.7051 5.34446 26.1436 5.52604Z" fill="#0EA03B"/>
<path d="M22.0007 21.2273H22C21.5255 21.2273 21.141 21.612 21.141 22.0867C21.141 22.5613 21.5261 22.946 22.0007 22.946C22.4753 22.946 22.8601 22.5613 22.8601 22.0867C22.8601 21.612 22.4753 21.2273 22.0007 21.2273Z" fill="#0EA03B"/>
</g>
<defs>
<clipPath id="clip0_11_1082">
<rect width="44" height="44" fill="white" transform="translate(0 0.0866699)"/>
</clipPath>
</defs>
</svg>
