<svg width="41" height="41" viewBox="0 0 41 41" fill="none" xmlns="http://www.w3.org/2000/svg">
<g clip-path="url(#clip0_21_1107)">
<path d="M11.4094 28.0893C11.1291 28.0885 10.8564 27.9979 10.6314 27.8307C10.4064 27.6635 10.241 27.4285 10.1594 27.1604L7.44847 18.2541C7.36159 17.9687 7.37479 17.6621 7.48589 17.3852C7.59699 17.1083 7.79933 16.8777 8.05941 16.7315C12.9032 14.0096 19.6813 12.4807 19.9672 12.4174C20.1547 12.3752 20.3493 12.3752 20.5368 12.4174C20.8227 12.4807 27.6039 14.0096 32.4446 16.7315C32.7046 16.8777 32.907 17.1083 33.0181 17.3852C33.1292 17.6621 33.1424 17.9687 33.0555 18.2541L30.3446 27.1604C30.2945 27.3249 30.2125 27.4779 30.1033 27.6107C29.9941 27.7436 29.8598 27.8536 29.7081 27.9345C29.5563 28.0154 29.3902 28.0657 29.219 28.0824C29.0479 28.0991 28.8751 28.0819 28.7106 28.0318C28.5461 27.9818 28.393 27.8998 28.2602 27.7906C28.1274 27.6814 28.0174 27.5471 27.9364 27.3953C27.8555 27.2436 27.8053 27.0774 27.7886 26.9063C27.7719 26.7351 27.789 26.5624 27.8391 26.3979L30.2336 18.5244C26.3625 16.5713 21.4696 15.333 20.25 15.0408C19.0297 15.3338 14.1328 16.5752 10.2657 18.5236L12.6625 26.3979C12.7127 26.5624 12.7299 26.7351 12.7133 26.9063C12.6966 27.0775 12.6464 27.2437 12.5656 27.3955C12.4847 27.5473 12.3747 27.6816 12.2418 27.7909C12.109 27.9001 11.956 27.9821 11.7914 28.0322C11.6676 28.0698 11.5389 28.089 11.4094 28.0893Z" fill="#0EA03B"/>
<path d="M27.4657 17.207C27.1184 17.2068 26.7853 17.0687 26.5398 16.823C26.2943 16.5773 26.1563 16.2442 26.1563 15.8969V10.0766H14.3431V15.8969C14.3473 16.0716 14.3166 16.2453 14.2527 16.408C14.1888 16.5706 14.093 16.7188 13.971 16.8439C13.8489 16.969 13.7031 17.0684 13.5421 17.1362C13.381 17.2041 13.208 17.239 13.0333 17.239C12.8586 17.239 12.6856 17.2041 12.5245 17.1362C12.3635 17.0684 12.2177 16.969 12.0956 16.8439C11.9736 16.7188 11.8778 16.5706 11.8139 16.408C11.75 16.2453 11.7193 16.0716 11.7235 15.8969V10.0766C11.7244 9.38207 12.0006 8.71627 12.4917 8.22519C12.9828 7.73411 13.6486 7.45786 14.3431 7.45703H26.1563C26.8508 7.45786 27.5166 7.73411 28.0077 8.22519C28.4988 8.71627 28.7751 9.38207 28.7759 10.0766V15.8969C28.7759 16.2443 28.6378 16.5776 28.3921 16.8233C28.1464 17.069 27.8132 17.207 27.4657 17.207Z" fill="#0EA03B"/>
<path d="M22.693 10.0768C22.3458 10.0768 22.0127 9.93881 21.7672 9.69325C21.5216 9.4477 21.3837 9.11465 21.3837 8.76738V3.06426H19.118V8.76738C19.1097 9.10922 18.968 9.43424 18.7233 9.67305C18.4786 9.91187 18.1502 10.0455 17.8083 10.0455C17.4663 10.0455 17.138 9.91187 16.8932 9.67305C16.6485 9.43424 16.5069 9.10922 16.4985 8.76738V1.75254C16.4985 1.40547 16.6362 1.07258 16.8814 0.826946C17.1266 0.581312 17.4593 0.443004 17.8063 0.442383H22.693C23.04 0.44321 23.3724 0.581609 23.6174 0.827222C23.8625 1.07283 24.0001 1.4056 24.0001 1.75254V8.76738C24.0001 9.11424 23.8624 9.44693 23.6174 9.69242C23.3724 9.93791 23.0399 10.0761 22.693 10.0768ZM20.2501 28.0885C19.9028 28.0885 19.5698 27.9505 19.3242 27.705C19.0787 27.4594 18.9407 27.1264 18.9407 26.7791V13.6963C18.9491 13.3545 19.0907 13.0294 19.3354 12.7906C19.5801 12.5518 19.9085 12.4181 20.2505 12.4181C20.5924 12.4181 20.9208 12.5518 21.1655 12.7906C21.4102 13.0294 21.5519 13.3545 21.5602 13.6963V26.7791C21.5602 26.9511 21.5263 27.1214 21.4605 27.2804C21.3946 27.4393 21.2981 27.5837 21.1765 27.7052C21.0548 27.8268 20.9103 27.9233 20.7514 27.989C20.5924 28.0548 20.4221 28.0886 20.2501 28.0885ZM25.2829 34.2416C24.0144 34.2441 22.7959 33.7474 21.8907 32.8588L21.8243 32.7932C21.4049 32.3833 20.8411 32.155 20.2548 32.1575C19.6684 32.1599 19.1066 32.3931 18.6907 32.8064L18.6696 32.8275C17.7644 33.7278 16.5413 34.2357 15.2647 34.2416C13.988 34.2474 12.7604 33.7507 11.847 32.8588L11.7805 32.7932C11.3612 32.3833 10.7974 32.155 10.211 32.1575C9.62466 32.1599 9.06283 32.3931 8.64696 32.8064C8.52538 32.9281 8.38104 33.0246 8.22217 33.0904C8.06331 33.1562 7.89303 33.1902 7.72106 33.1902C7.54909 33.1902 7.3788 33.1564 7.2199 33.0906C7.06101 33.0248 6.91663 32.9284 6.795 32.8068C6.67338 32.6853 6.57689 32.5409 6.51104 32.3821C6.4452 32.2232 6.41129 32.0529 6.41125 31.8809C6.41122 31.709 6.44505 31.5387 6.51083 31.3798C6.57661 31.2209 6.67304 31.0765 6.79461 30.9549C7.69989 30.055 8.92286 29.5473 10.1993 29.5416C11.4758 29.5359 12.7032 30.0326 13.6165 30.9244L13.6829 30.99C14.1023 31.3999 14.666 31.6282 15.2524 31.6257C15.8388 31.6233 16.4006 31.3901 16.8165 30.9768L16.8376 30.9557C17.7427 30.0555 18.9656 29.5476 20.2421 29.5417C21.5186 29.5359 22.7462 30.0326 23.6595 30.9244L23.7266 30.99C24.146 31.3999 24.7098 31.6282 25.2962 31.6257C25.8825 31.6233 26.4444 31.3901 26.8602 30.9768C27.31 30.5268 27.8441 30.1698 28.4319 29.9262C29.0197 29.6827 29.6498 29.5573 30.286 29.5573C30.9223 29.5573 31.5523 29.6827 32.1401 29.9262C32.7279 30.1698 33.262 30.5268 33.7118 30.9768C33.8334 31.0984 33.9298 31.2428 33.9956 31.4017C34.0614 31.5606 34.0952 31.7308 34.0952 31.9028C34.0951 32.0748 34.0612 32.2451 33.9954 32.4039C33.9295 32.5628 33.833 32.7071 33.7114 32.8287C33.5898 32.9503 33.4454 33.0467 33.2865 33.1125C33.1276 33.1783 32.9573 33.2121 32.7854 33.2121C32.6134 33.212 32.4431 33.1781 32.2842 33.1123C32.1254 33.0464 31.981 32.9499 31.8595 32.8283C31.4419 32.4111 30.8759 32.1768 30.2856 32.1768C29.6954 32.1768 29.1293 32.4111 28.7118 32.8283C28.2616 33.2783 27.7269 33.6348 27.1385 33.8773C26.55 34.1199 25.9194 34.2437 25.2829 34.2416Z" fill="#0EA03B"/>
<path d="M25.2828 39.7249C24.0144 39.7274 22.7959 39.2307 21.8907 38.3421L21.8243 38.2765C21.4048 37.8657 20.8403 37.6367 20.2532 37.6392C19.666 37.6417 19.1035 37.8754 18.6875 38.2898L18.6664 38.3108C17.7614 39.211 16.5384 39.7189 15.2619 39.7248C13.9854 39.7306 12.7578 39.234 11.8446 38.3421L11.7774 38.2765C11.358 37.8666 10.7942 37.6383 10.2079 37.6408C9.62149 37.6432 9.05965 37.8764 8.64378 38.2898C8.39825 38.5354 8.06519 38.6734 7.71789 38.6735C7.37058 38.6736 7.03746 38.5357 6.79183 38.2901C6.54619 38.0446 6.40815 37.7116 6.40808 37.3642C6.40801 37.0169 6.54591 36.6838 6.79144 36.4382C7.69672 35.5383 8.91968 35.0307 10.1961 35.025C11.4726 35.0192 12.7 35.5159 13.6133 36.4077L13.6797 36.4733C14.0991 36.8832 14.6629 37.1115 15.2492 37.1091C15.8356 37.1066 16.3974 36.8734 16.8133 36.4601L16.8344 36.439C17.7395 35.5388 18.9624 35.0309 20.2389 35.025C21.5154 35.0192 22.743 35.5159 23.6563 36.4077L23.7235 36.4733C24.1428 36.8832 24.7066 37.1115 25.293 37.1091C25.8794 37.1066 26.4412 36.8734 26.8571 36.4601C27.3069 36.0101 27.8409 35.6531 28.4287 35.4095C29.0165 35.166 29.6466 35.0406 30.2828 35.0406C30.9191 35.0406 31.5491 35.166 32.1369 35.4095C32.7248 35.6531 33.2588 36.0101 33.7086 36.4601C33.9542 36.7057 34.0921 37.0388 34.092 37.3861C34.0919 37.7334 33.9539 38.0665 33.7082 38.312C33.4626 38.5576 33.1295 38.6954 32.7822 38.6954C32.4349 38.6953 32.1018 38.5573 31.8563 38.3116C31.4388 37.8944 30.8727 37.6601 30.2825 37.6601C29.6922 37.6601 29.1261 37.8944 28.7086 38.3116C28.2587 38.7611 27.7245 39.1173 27.1366 39.3598C26.5488 39.6023 25.9188 39.7264 25.2828 39.7249Z" fill="#0EA03B"/>
</g>
<defs>
<clipPath id="clip0_21_1107">
<rect width="40" height="40" fill="white" transform="translate(0.25 0.0869141)"/>
</clipPath>
</defs>
</svg>
