<svg width="44" height="45" viewBox="0 0 44 45" fill="none" xmlns="http://www.w3.org/2000/svg">
<g clip-path="url(#clip0_8_270)">
<path d="M30.25 2.83691C30.9793 2.83691 31.6788 3.12665 32.1945 3.64237C32.7103 4.1581 33 4.85757 33 5.58691V38.5869C33 39.3163 32.7103 40.0157 32.1945 40.5315C31.6788 41.0472 30.9793 41.3369 30.25 41.3369H13.75C13.0207 41.3369 12.3212 41.0472 11.8055 40.5315C11.2897 40.0157 11 39.3163 11 38.5869V5.58691C11 4.85757 11.2897 4.1581 11.8055 3.64237C12.3212 3.12665 13.0207 2.83691 13.75 2.83691H30.25ZM13.75 0.0869141C12.2913 0.0869141 10.8924 0.666377 9.86091 1.69783C8.82946 2.72928 8.25 4.12822 8.25 5.58691V38.5869C8.25 40.0456 8.82946 41.4446 9.86091 42.476C10.8924 43.5075 12.2913 44.0869 13.75 44.0869H30.25C31.7087 44.0869 33.1076 43.5075 34.1391 42.476C35.1705 41.4446 35.75 40.0456 35.75 38.5869V5.58691C35.75 4.12822 35.1705 2.72928 34.1391 1.69783C33.1076 0.666377 31.7087 0.0869141 30.25 0.0869141L13.75 0.0869141Z" fill="#0EA03B"/>
<path d="M22 38.5869C22.7293 38.5869 23.4288 38.2972 23.9445 37.7815C24.4603 37.2657 24.75 36.5663 24.75 35.8369C24.75 35.1076 24.4603 34.4081 23.9445 33.8924C23.4288 33.3766 22.7293 33.0869 22 33.0869C21.2707 33.0869 20.5712 33.3766 20.0555 33.8924C19.5397 34.4081 19.25 35.1076 19.25 35.8369C19.25 36.5663 19.5397 37.2657 20.0555 37.7815C20.5712 38.2972 21.2707 38.5869 22 38.5869Z" fill="#0EA03B"/>
</g>
<defs>
<clipPath id="clip0_8_270">
<rect width="44" height="44" fill="white" transform="translate(0 0.0869141)"/>
</clipPath>
</defs>
</svg>
