<svg width="41" height="41" viewBox="0 0 41 41" fill="none" xmlns="http://www.w3.org/2000/svg">
<path d="M20.5 35.0869C12.25 35.0869 5.5 28.3369 5.5 20.0869C5.5 11.8369 12.25 5.08691 20.5 5.08691C28.75 5.08691 35.5 11.8369 35.5 20.0869C35.5 28.3369 28.75 35.0869 20.5 35.0869ZM20.5 7.58691C13.625 7.58691 8 13.2119 8 20.0869C8 26.9619 13.625 32.5869 20.5 32.5869C27.375 32.5869 33 26.9619 33 20.0869C33 13.2119 27.375 7.58691 20.5 7.58691Z" fill="#0EA03B"/>
<path d="M20.5 21.3369C18.125 21.3369 16.125 19.8369 15.625 17.8369C15.5 17.5869 15.5 17.3369 15.5 16.9619C15.5 14.5869 17.75 12.5869 20.5 12.5869C23.25 12.5869 25.5 14.5869 25.5 16.9619C25.5 17.3369 25.5 17.5869 25.375 17.8369C25.25 18.4619 24.5 18.9619 23.875 18.7119C23.25 18.5869 22.75 17.8369 23 17.2119V16.8369C23 15.9619 21.875 15.0869 20.5 15.0869C19.125 15.0869 18 15.9619 18 16.9619V17.3369C18.25 18.2119 19.25 18.8369 20.5 18.8369C21.25 18.8369 21.75 19.3369 21.75 20.0869C21.75 20.8369 21.25 21.3369 20.5 21.3369Z" fill="#0EA03B"/>
<path d="M20.5 27.5869C17.75 27.5869 15.5 25.5869 15.5 23.2119C15.5 22.8369 15.5 22.5869 15.625 22.3369C15.75 21.7119 16.5 21.2119 17.125 21.4619C17.75 21.5869 18.25 22.3369 18 22.9619V23.3369C18 24.3369 19.125 25.2119 20.5 25.2119C21.875 25.2119 23 24.3369 23 23.3369V22.9619C22.75 22.0869 21.75 21.4619 20.5 21.4619C19.75 21.4619 19.25 20.9619 19.25 20.2119C19.25 19.4619 19.75 18.9619 20.5 18.9619C22.875 18.9619 24.875 20.4619 25.375 22.4619C25.5 22.5869 25.5 22.8369 25.5 23.2119C25.5 25.5869 23.25 27.5869 20.5 27.5869Z" fill="#0EA03B"/>
<path d="M20.5 30.0869C19.75 30.0869 19.25 29.5869 19.25 28.8369V26.3369C19.25 25.5869 19.75 25.0869 20.5 25.0869C21.25 25.0869 21.75 25.5869 21.75 26.3369V28.8369C21.75 29.5869 21.25 30.0869 20.5 30.0869ZM20.5 15.0869C19.75 15.0869 19.25 14.5869 19.25 13.8369V11.3369C19.25 10.5869 19.75 10.0869 20.5 10.0869C21.25 10.0869 21.75 10.5869 21.75 11.3369V13.8369C21.75 14.5869 21.25 15.0869 20.5 15.0869ZM24.25 18.8369C23.875 18.8369 23.625 18.7119 23.375 18.4619C23.125 18.2119 23 17.9619 23 17.5869C23 17.2119 23.125 16.9619 23.375 16.7119C23.875 16.2119 24.625 16.2119 25.125 16.7119C25.375 16.9619 25.5 17.2119 25.5 17.5869C25.5 17.9619 25.375 18.2119 25.125 18.4619C24.875 18.7119 24.625 18.8369 24.25 18.8369Z" fill="#0EA03B"/>
</svg>
