<svg width="44" height="45" viewBox="0 0 44 45" fill="none" xmlns="http://www.w3.org/2000/svg">
<g clip-path="url(#clip0_11_752)">
<path d="M34.5468 23.4978V20.5398C34.5468 19.4202 33.8293 18.4654 32.83 18.1102L32.8546 8.49382C32.8552 8.26462 32.7643 8.04479 32.602 7.88297L25.0332 0.337435C24.872 0.176818 24.6539 0.0866699 24.4264 0.0866699H14.6095C14.1349 0.0866699 13.7501 0.471411 13.7501 0.946041C13.7501 1.42067 14.1349 1.80541 14.6095 1.80541H23.567V6.93827C23.567 8.26866 24.6494 9.35104 25.9797 9.35104H31.1337L31.1116 17.9619H13.7499V17.1022C13.7499 16.801 13.6975 16.5118 13.6021 16.2429H27.6884C28.1631 16.2429 28.5478 15.8581 28.5478 15.3835C28.5478 14.9089 28.1631 14.5241 27.6884 14.5241H11.1718H3.43774L3.43749 2.66478C3.43749 2.19093 3.823 1.80541 4.29686 1.80541H6.87514C7.34978 1.80541 7.73452 1.42067 7.73452 0.946041C7.73452 0.471411 7.34978 0.0866699 6.87514 0.0866699H4.29686C2.87529 0.0866699 1.71874 1.24321 1.71874 2.66478L1.71892 14.6719C0.718607 15.0266 0 15.9819 0 17.1022V39.4459C0 40.8675 1.15654 42.024 2.57811 42.024H27.5067C29.2302 43.3186 31.3708 44.0866 33.6875 44.0866C39.3738 44.0866 44 39.4604 44 33.7741C44 28.3773 39.8326 23.936 34.5468 23.4978ZM25.2858 6.93827V3.01618L29.9161 7.63221H25.9798C25.5971 7.63221 25.2858 7.32095 25.2858 6.93827ZM1.71874 39.4459V17.1022C1.71874 16.6284 2.10426 16.2429 2.57811 16.2429H11.1718C11.6457 16.2429 12.0312 16.6284 12.0312 17.1022V18.8211C12.0312 19.2958 12.4159 19.6805 12.8906 19.6805H31.9688C32.4427 19.6805 32.8282 20.066 32.8282 20.5399V23.4979C27.5425 23.9361 23.3751 28.3774 23.3751 33.7743C23.3751 36.2507 24.2527 38.5257 25.7129 40.3054H2.57811C2.10426 40.3053 1.71874 39.9198 1.71874 39.4459ZM28.7724 40.8193C29.1466 39.6448 29.9401 38.6304 30.9947 37.9785C31.732 38.5733 32.6687 38.9304 33.6876 38.9304C34.7066 38.9304 35.6433 38.5732 36.3806 37.9783C37.4351 38.6302 38.2285 39.6447 38.6027 40.8194C37.2089 41.7947 35.514 42.3679 33.6876 42.3679C31.861 42.3679 30.1661 41.7947 28.7724 40.8193ZM36.2656 34.6336C36.2656 36.0552 35.109 37.2117 33.6875 37.2117C32.2659 37.2117 31.1093 36.0552 31.1093 34.6336V32.9147C31.1093 31.4932 32.2659 30.3366 33.6875 30.3366C35.109 30.3366 36.2656 31.4932 36.2656 32.9147V34.6336ZM39.9834 39.6168C39.4532 38.4153 38.5834 37.3776 37.4836 36.6437C37.8028 36.0435 37.9844 35.3595 37.9844 34.6336V32.9147C37.9844 30.5455 36.0568 28.6179 33.6875 28.6179C31.3183 28.6179 29.3907 30.5455 29.3907 32.9147V34.6336C29.3907 35.36 29.5726 36.0446 29.8922 36.6451C28.7924 37.379 27.9221 38.4156 27.392 39.617C25.9669 38.0825 25.0939 36.0285 25.0939 33.7741C25.0939 29.0355 28.9491 25.1804 33.6876 25.1804C38.4262 25.1804 42.2813 29.0355 42.2813 33.7741C42.2813 36.0284 41.4083 38.0824 39.9834 39.6168Z" fill="#0EA03B"/>
<path d="M16.8522 9.35107C17.3268 9.35107 17.7116 8.96633 17.7116 8.4917C17.7116 8.01707 17.3268 7.63232 16.8522 7.63232H6.87512C6.40049 7.63232 6.01575 8.01707 6.01575 8.4917C6.01575 8.96633 6.40049 9.35107 6.87512 9.35107H16.8522Z" fill="#0EA03B"/>
<path d="M16.8522 4.19458H6.87512C6.40049 4.19458 6.01575 4.57932 6.01575 5.05396C6.01575 5.52859 6.40049 5.91333 6.87512 5.91333H16.8521C17.3268 5.91333 17.7115 5.52859 17.7115 5.05396C17.7115 4.57932 17.3268 4.19458 16.8522 4.19458Z" fill="#0EA03B"/>
<path d="M6.87524 12.7886H27.6884C28.1631 12.7886 28.5478 12.4038 28.5478 11.9292C28.5478 11.4546 28.1631 11.0698 27.6884 11.0698H6.87524C6.40061 11.0698 6.01587 11.4546 6.01587 11.9292C6.01587 12.4038 6.40061 12.7886 6.87524 12.7886Z" fill="#0EA03B"/>
<path d="M10.7427 1.80542C11.2173 1.80542 11.6021 1.42068 11.6021 0.946045C11.6021 0.471412 11.2173 0.0866699 10.7427 0.0866699H10.7421C10.2675 0.0866699 9.88306 0.471412 9.88306 0.946045C9.88306 1.42068 10.2681 1.80542 10.7427 1.80542Z" fill="#0EA03B"/>
</g>
<defs>
<clipPath id="clip0_11_752">
<rect width="44" height="44" fill="white" transform="translate(0 0.0866699)"/>
</clipPath>
</defs>
</svg>
