<svg xmlns="http://www.w3.org/2000/svg" viewBox="0 0 424.09 394.54"><defs><style>.cls-1{fill:#178fe6;}</style></defs><g id="Layer_2" data-name="Layer 2"><g id="Group_11599" data-name="Group 11599"><path class="cls-1" d="M41.9,266.83c-9.52.42-30.36-.44-41.9-7.37,6.68-3.3,12.28-7.61,14.51-11.11,9-14.23,14.55-29.61,14.72-46.66.46-47.5,13.72-90.58,44-127.84,29.42-36.21,66.71-59.74,112.5-69.06,13-2.64,26.34-4.8,39.52-4.79,34.33,0,67,7.84,97.14,24.83a195.21,195.21,0,0,1,47.27,36.51c25.13,26.86,42.53,58,49.61,94.28,2.57,13.18,4.76,26.68,4.82,40A196.92,196.92,0,0,1,363.87,339c-27.09,25.91-58.76,43.65-95.78,50.76-13,2.5-26.33,4.81-39.51,4.8-34.48-.05-67.25-7.82-97.56-25-17.24-9.76-33-21.45-46.53-35.81C67.15,315.4,53.15,294.81,44.1,271.06A37.49,37.49,0,0,0,41.9,266.83Zm88.4-100.52c-13.28,18.55-25.92,36.17-38.53,53.82-4.31,6-8.93,11.86-12.72,18.18-5.12,8.54-.38,18.6,8.74,18.69,21.93.23,43.87.14,65.8,0a10.52,10.52,0,0,0,10.32-11c-.18-6.31-3.82-9.78-10.44-9.79-13.79,0-27.58,0-41.37,0-1.37,0-2.74-.21-4.66-.38l16.79-23.33c11.06-15.37,22.2-30.68,33.12-46.15,3-4.24,4.93-8.94,2.45-14.35-3.15-6.85-9.46-7.18-15.51-7.27-16.44-.25-32.9-.1-49.34-.07a34.31,34.31,0,0,0-6.42.44c-6.72,1.32-10.83,6.11-10.32,11.73.53,5.83,5.25,9.48,12.34,9.48C103.46,166.32,116.38,166.31,130.3,166.31Zm98.55,14.07a74.23,74.23,0,0,0-6.52-5.11c-11.1-6.85-27.66-4.43-37.9,5-17,15.64-19,44.18-6.84,62.51,8.8,13.3,24.49,19.64,38.54,15,4.68-1.53,8.78-4.84,13.28-7.4a32.91,32.91,0,0,0,1.88,3.54c2.94,4.35,7.62,5.14,11.89,3.81,2.85-.88,5.69-3.8,7.17-6.54,1.38-2.57,1.28-6.11,1.3-9.22.1-17.95.13-35.9,0-53.85a33.47,33.47,0,0,0-1.78-10.1c-1.24-3.7-4.2-5.53-8.32-5.76C235.45,172,231.47,174.66,228.85,180.38Zm147.74,33.25a69.56,69.56,0,0,0-1.27-9.78c-7-28.07-36.43-41.46-60.35-26.51-17.16,10.73-25.66,34.59-16.34,57,9.61,23.14,38,32.42,58.87,18.68C370.83,244.28,376.46,231.26,376.59,213.63ZM262.76,196.92c0,16-.1,31.91.05,47.87.05,5.09,1.48,9.82,6.69,12.23,4.21,1.94,8.42,1.74,12.12-1.06,4-3,5-7.56,5-12.31q0-41.64,0-83.27c0-3.82.12-7.65,0-11.47-.39-9.56-7.5-15.2-15.52-12.44-5.48,1.89-8.29,6.21-8.3,13.09C262.73,165.35,262.76,181.13,262.76,196.92Z"/><ellipse class="cls-1" cx="211.58" cy="215.57" rx="18.63" ry="22.72"/><ellipse class="cls-1" cx="335.69" cy="215.57" rx="18.63" ry="22.72"/></g></g></svg>